<?xml version="1.0" encoding="utf-8"?>
<!-- Generator: Adobe Illustrator 28.1.0, SVG Export Plug-In . SVG Version: 6.00 Build 0)  -->
<svg version="1.1" id="레이어_1" xmlns="http://www.w3.org/2000/svg" xmlns:xlink="http://www.w3.org/1999/xlink" x="0px"
	 y="0px" viewBox="0 0 198.4 198.4" style="enable-background:new 0 0 198.4 198.4;" xml:space="preserve">
<g>
	<path d="M90.8,80.9c-21.5,0-41.6,0-62.5,0c0.9-1.7,1.4-2.8,2.1-3.7c15.4-21.3,30.9-42.5,46.2-63.9c2.3-3.2,4.8-4.3,8.6-4.3
		c18.6,0.2,37.3,0.1,57.1,0.1c-6.4,9-12.4,17.3-19,26.6c21.3,0,41.5,0,63.1,0c-26.1,36.1-51.5,71.2-77.6,107.1c23.7,0,46.7,0,70,0
		c0,16,0,31.2,0,46.7c-55.3,0-110.3,0-166.5,0C38.3,153.3,64.2,117.7,90.8,80.9z"/>
</g>
</svg>
