<?xml version="1.0" encoding="utf-8"?>
<!-- Generator: Adobe Illustrator 28.1.0, SVG Export Plug-In . SVG Version: 6.00 Build 0)  -->
<svg version="1.1" id="레이어_1" xmlns="http://www.w3.org/2000/svg" xmlns:xlink="http://www.w3.org/1999/xlink" x="0px"
	 y="0px" viewBox="0 0 198.4 198.4" style="enable-background:new 0 0 198.4 198.4;" xml:space="preserve">
<g>
	<g>
		<path d="M161.4,115.5c1.1,0,2.2,0,3.3,0c0.6,0.1,1.1,0.2,1.7,0.3c8.3,1.3,15.1,8.5,15.8,16.9c0.3,3.5,0.1,7.1,0.2,10.6
			c0,0.4,0,0.7,0,1.2c0.7,0,1.4,0,2,0c4.6,0,7.7,3.1,7.7,7.6c0,11,0,22.1,0,33.1c0,4.5-3.1,7.6-7.6,7.6c-4.5,0-9.1,0-13.6,0
			c-9.8,0-19.6,0-29.4,0c-4.1,0-7.4-3.1-7.4-7.1c0-11.4,0-22.8,0-34.2c0-3.5,2.6-6.4,6-6.9c1.2-0.2,2.4-0.1,3.7-0.2
			c0-0.3,0-0.5,0-0.8c0-3,0-6.1,0-9.1c0.1-8.1,5.5-15.4,13.1-17.9C158.3,116,159.9,115.8,161.4,115.5z M150.2,144.4
			c8.6,0,17.1,0,25.7,0c0-3.8,0-7.5,0-11.3c0-0.2-0.1-0.4-0.1-0.6c-1.1-6.7-7.8-11.6-14.5-10.5c-6.6,1.1-11,6.3-11,12.9
			c0,2.9,0,5.8,0,8.8C150.1,144,150.2,144.2,150.2,144.4z"/>
	</g>
	<g>
		<path d="M196.8,59.7C192.4,42.5,177,30,159.2,29.2c-1-0.1-1.9-0.1-2.9-0.1c-38.1,0-76.2-0.1-114.3,0c-16,0.1-28.3,7.1-36.5,20.8
			c-3.8,6.3-5.4,13.3-5.4,20.7C0,89.7,0,108.7,0.1,127.8c0.1,19.9,12.9,36,32.2,40.5c3,0.7,6.3,1,9.4,1c29.9,0,59.9,0,89.8,0
			c0-5.7,0-11.6,0-17.7c0-4.6,3.5-8.7,8.1-9.4c0.5-0.1,1-0.1,1.6-0.2l0-1.3c0-2.1,0-4.2,0-6.3c0.1-9.1,6.2-17.5,14.9-20.3
			c1.1-0.4,2.3-0.6,3.4-0.8c0.5-0.1,0.9-0.2,1.4-0.3l0.3-0.1l4,0l0.6,0.1c0.4,0.1,0.7,0.1,1.1,0.2c9.4,1.5,17.1,9.8,17.9,19.2
			c0.2,2.5,0.2,5.1,0.2,7.6c0,0.7,0,1.3,0,2c3.9,0.2,7.1,2.2,8.6,5.3c1.6-3.2,2.9-6.7,3.8-10.4c0.5-2.1,0.8-4.2,1.1-6.3
			c0-20.9,0-41.9,0-62.8C197.9,65.1,197.6,62.4,196.8,59.7z M128.5,102.4c-8.1,4-16.3,7.8-24.4,11.7c-9.2,4.4-18.4,8.8-27.6,13.2
			c-3.3,1.6-4.6,0.8-4.6-2.8c0-8.4,0-16.8,0-25.2c0-8.4,0-16.9-0.1-25.6c0-3.6,1.3-4.3,4.6-2.7c17.2,8.7,34.3,17.4,51.5,26.1
			c0.3,0.2,0.5,0.2,0.7,0.4c0.7,0.8,2,1.7,1.9,2.4C130.4,100.8,129.4,102,128.5,102.4z"/>
	</g>
</g>
</svg>
